<svg width="52" height="52" viewBox="0 0 52 52" fill="none" xmlns="http://www.w3.org/2000/svg">
<path fill-rule="evenodd" clip-rule="evenodd" d="M21.465 15.066C22.638 15.012 23.012 15 26 15C28.988 15 29.362 15.013 30.534 15.066C31.706 15.119 32.506 15.306 33.206 15.577C33.939 15.854 34.604 16.287 35.154 16.847C35.714 17.396 36.146 18.06 36.422 18.794C36.694 19.494 36.88 20.294 36.934 21.464C36.988 22.639 37 23.013 37 26C37 28.988 36.987 29.362 36.934 30.535C36.881 31.705 36.694 32.505 36.422 33.205C36.146 33.9391 35.7133 34.6042 35.154 35.154C34.604 35.714 33.939 36.146 33.206 36.422C32.506 36.694 31.706 36.88 30.536 36.934C29.362 36.988 28.988 37 26 37C23.012 37 22.638 36.987 21.465 36.934C20.295 36.881 19.495 36.694 18.795 36.422C18.0609 36.146 17.3958 35.7133 16.846 35.154C16.2864 34.6047 15.8533 33.9399 15.577 33.206C15.306 32.506 15.12 31.706 15.066 30.536C15.012 29.361 15 28.987 15 26C15 23.012 15.013 22.638 15.066 21.466C15.119 20.294 15.306 19.494 15.577 18.794C15.8537 18.0601 16.2871 17.3953 16.847 16.846C17.396 16.2865 18.0605 15.8534 18.794 15.577C19.494 15.306 20.294 15.12 21.464 15.066H21.465ZM30.445 17.046C29.285 16.993 28.937 16.982 26 16.982C23.063 16.982 22.715 16.993 21.555 17.046C20.482 17.095 19.9 17.274 19.512 17.425C18.999 17.625 18.632 17.862 18.247 18.247C17.882 18.6021 17.6012 19.0343 17.425 19.512C17.274 19.9 17.095 20.482 17.046 21.555C16.993 22.715 16.982 23.063 16.982 26C16.982 28.937 16.993 29.285 17.046 30.445C17.095 31.518 17.274 32.1 17.425 32.488C17.601 32.965 17.882 33.398 18.247 33.753C18.602 34.118 19.035 34.399 19.512 34.575C19.9 34.726 20.482 34.905 21.555 34.954C22.715 35.007 23.062 35.018 26 35.018C28.938 35.018 29.285 35.007 30.445 34.954C31.518 34.905 32.1 34.726 32.488 34.575C33.001 34.375 33.368 34.138 33.753 33.753C34.118 33.398 34.399 32.965 34.575 32.488C34.726 32.1 34.905 31.518 34.954 30.445C35.007 29.285 35.018 28.937 35.018 26C35.018 23.063 35.007 22.715 34.954 21.555C34.905 20.482 34.726 19.9 34.575 19.512C34.375 18.999 34.138 18.632 33.753 18.247C33.3979 17.8821 32.9657 17.6012 32.488 17.425C32.1 17.274 31.518 17.095 30.445 17.046ZM24.595 29.391C25.3797 29.7176 26.2534 29.7617 27.0669 29.5157C27.8805 29.2697 28.5834 28.7489 29.0556 28.0422C29.5278 27.3356 29.7401 26.4869 29.656 25.6411C29.572 24.7953 29.197 24.005 28.595 23.405C28.2112 23.0215 27.7472 22.7278 27.2363 22.5451C26.7255 22.3625 26.1804 22.2954 25.6405 22.3486C25.1006 22.4019 24.5792 22.5742 24.1138 22.8531C23.6485 23.1321 23.2507 23.5107 22.9493 23.9619C22.6479 24.413 22.4502 24.9253 22.3705 25.462C22.2908 25.9986 22.3312 26.5463 22.4885 27.0655C22.6459 27.5847 22.9165 28.0626 23.2807 28.4647C23.645 28.8668 24.0938 29.1832 24.595 29.391ZM22.002 22.002C22.527 21.477 23.1503 21.0605 23.8363 20.7764C24.5223 20.4922 25.2575 20.346 26 20.346C26.7425 20.346 27.4777 20.4922 28.1637 20.7764C28.8497 21.0605 29.473 21.477 29.998 22.002C30.523 22.527 30.9395 23.1503 31.2236 23.8363C31.5078 24.5223 31.654 25.2575 31.654 26C31.654 26.7425 31.5078 27.4777 31.2236 28.1637C30.9395 28.8497 30.523 29.473 29.998 29.998C28.9377 31.0583 27.4995 31.654 26 31.654C24.5005 31.654 23.0623 31.0583 22.002 29.998C20.9417 28.9377 20.346 27.4995 20.346 26C20.346 24.5005 20.9417 23.0623 22.002 22.002ZM32.908 21.188C33.0381 21.0653 33.1423 20.9177 33.2143 20.754C33.2863 20.5903 33.3248 20.4138 33.3274 20.2349C33.33 20.0561 33.2967 19.8785 33.2295 19.7128C33.1622 19.5471 33.0624 19.3965 32.936 19.27C32.8095 19.1436 32.6589 19.0438 32.4932 18.9765C32.3275 18.9093 32.1499 18.876 31.9711 18.8786C31.7922 18.8812 31.6157 18.9197 31.452 18.9917C31.2883 19.0637 31.1407 19.1679 31.018 19.298C30.7793 19.551 30.6486 19.8871 30.6537 20.2349C30.6588 20.5827 30.7992 20.9149 31.0452 21.1608C31.2911 21.4068 31.6233 21.5472 31.9711 21.5523C32.3189 21.5574 32.655 21.4267 32.908 21.188Z" fill="#F6F6F6"/>
<circle cx="26" cy="26" r="25.5" stroke="#F6F6F6"/>
</svg>
