<svg width="52" height="52" viewBox="0 0 52 52" fill="none" xmlns="http://www.w3.org/2000/svg">
<g clip-path="url(#clip0_723_75)">
<path fill-rule="evenodd" clip-rule="evenodd" d="M31.415 28.382C31.117 28.233 29.656 27.515 29.384 27.415C29.112 27.316 28.914 27.267 28.715 27.565C28.517 27.861 27.948 28.531 27.775 28.729C27.601 28.928 27.428 28.952 27.131 28.804C26.834 28.654 25.876 28.341 24.741 27.329C23.858 26.541 23.261 25.568 23.088 25.27C22.915 24.973 23.069 24.812 23.218 24.664C23.352 24.531 23.515 24.317 23.664 24.144C23.813 23.97 23.862 23.846 23.961 23.647C24.061 23.449 24.011 23.276 23.936 23.127C23.862 22.978 23.268 21.515 23.02 20.92C22.779 20.341 22.534 20.42 22.352 20.41C22.178 20.402 21.98 20.4 21.782 20.4C21.584 20.4 21.262 20.474 20.99 20.772C20.717 21.069 19.95 21.788 19.95 23.251C19.95 24.713 21.014 26.126 21.163 26.325C21.312 26.523 23.258 29.525 26.239 30.812C26.949 31.118 27.502 31.301 27.933 31.437C28.645 31.664 29.293 31.632 29.805 31.555C30.375 31.47 31.563 30.836 31.811 30.142C32.058 29.448 32.058 28.853 31.984 28.729C31.91 28.605 31.712 28.531 31.414 28.382H31.415ZM25.993 35.785H25.989C24.2184 35.7854 22.4804 35.3094 20.957 34.407L20.597 34.193L16.855 35.175L17.854 31.527L17.619 31.153C16.6291 29.5774 16.1053 27.7538 16.108 25.893C16.11 20.443 20.544 16.009 25.997 16.009C28.637 16.009 31.119 17.039 32.985 18.907C33.9054 19.8236 34.6349 20.9136 35.1313 22.1139C35.6277 23.3143 35.8811 24.6011 35.877 25.9C35.875 31.35 31.441 35.785 25.993 35.785ZM34.405 17.488C33.3032 16.379 31.9922 15.4996 30.5481 14.9008C29.1039 14.3021 27.5553 13.9959 25.992 14C19.438 14 14.102 19.335 14.1 25.892C14.099 27.988 14.646 30.034 15.687 31.837L14 38L20.304 36.346C22.0479 37.2962 24.0021 37.794 25.988 37.794H25.993C32.547 37.794 37.883 32.459 37.885 25.901C37.8898 24.3383 37.5848 22.7901 36.9874 21.3461C36.3901 19.902 35.5124 18.5907 34.405 17.488Z" fill="#F6F6F6"/>
</g>
<circle cx="26" cy="26" r="25.5" stroke="#F6F6F6"/>
<defs>
<clipPath id="clip0_723_75">
<rect width="24" height="24" fill="white" transform="translate(14 14)"/>
</clipPath>
</defs>
</svg>
