<svg width="52" height="52" viewBox="0 0 52 52" fill="none" xmlns="http://www.w3.org/2000/svg">
<path d="M35.2062 15.9121C35.9472 15.9121 36.5062 16.5621 36.2072 17.7711L32.5802 34.8661C32.3267 36.0816 31.5922 36.3741 30.5782 35.8086L21.9267 29.4191C21.8931 29.395 21.8658 29.3633 21.847 29.3266C21.8281 29.2898 21.8183 29.2492 21.8183 29.2079C21.8183 29.1666 21.8281 29.1259 21.847 29.0891C21.8658 29.0524 21.8931 29.0207 21.9267 28.9966L31.9172 19.9746C32.3722 19.5716 31.8197 19.3766 31.2217 19.7406L18.6832 27.6511C18.6452 27.6759 18.602 27.6917 18.5569 27.6974C18.5119 27.703 18.4662 27.6983 18.4232 27.6836L13.0997 26.0001C11.9167 25.6556 11.9167 24.8431 13.3662 24.2646L34.6667 16.0486C34.8356 15.9676 35.0191 15.9212 35.2062 15.9121V15.9121Z" stroke="#F6F6F6" stroke-linecap="round" stroke-linejoin="round"/>
<circle cx="26" cy="26" r="25.5" stroke="#F6F6F6"/>
</svg>
