<svg width="30" height="30" viewBox="0 0 30 30" fill="none" xmlns="http://www.w3.org/2000/svg">
<g clip-path="url(#clip0_723_33)">
<path fill-rule="evenodd" clip-rule="evenodd" d="M12.3836 8.69189C13.0603 8.66073 13.2761 8.65381 15 8.65381C16.7238 8.65381 16.9396 8.66131 17.6157 8.69189C18.2919 8.72246 18.7534 8.83035 19.1573 8.98669C19.5802 9.1465 19.9638 9.39631 20.2811 9.71939C20.6042 10.0361 20.8534 10.4192 21.0127 10.8427C21.1696 11.2465 21.2769 11.708 21.308 12.383C21.3392 13.0609 21.3461 13.2767 21.3461 15C21.3461 16.7238 21.3386 16.9396 21.308 17.6163C21.2775 18.2913 21.1696 18.7528 21.0127 19.1567C20.8534 19.5802 20.6038 19.9639 20.2811 20.2811C19.9638 20.6042 19.5802 20.8534 19.1573 21.0127C18.7534 21.1696 18.2919 21.2769 17.6169 21.308C16.9396 21.3392 16.7238 21.3461 15 21.3461C13.2761 21.3461 13.0603 21.3386 12.3836 21.308C11.7086 21.2775 11.2471 21.1696 10.8432 21.0127C10.4197 20.8534 10.036 20.6038 9.71881 20.2811C9.39595 19.9642 9.14611 19.5807 8.98669 19.1573C8.83035 18.7534 8.72304 18.2919 8.69189 17.6169C8.66073 16.939 8.65381 16.7232 8.65381 15C8.65381 13.2761 8.66131 13.0603 8.69189 12.3842C8.72246 11.708 8.83035 11.2465 8.98669 10.8427C9.14634 10.4192 9.39638 10.0357 9.71939 9.71881C10.0361 9.39602 10.4195 9.14618 10.8427 8.98669C11.2465 8.83035 11.708 8.72304 12.383 8.69189H12.3836ZM17.5644 9.83419C16.8952 9.80362 16.6944 9.79727 15 9.79727C13.3055 9.79727 13.1048 9.80362 12.4355 9.83419C11.8165 9.86246 11.4807 9.96573 11.2569 10.0528C10.9609 10.1682 10.7492 10.305 10.5271 10.5271C10.3165 10.7319 10.1545 10.9813 10.0528 11.2569C9.96573 11.4807 9.86246 11.8165 9.83419 12.4355C9.80362 13.1048 9.79727 13.3055 9.79727 15C9.79727 16.6944 9.80362 16.8952 9.83419 17.5644C9.86246 18.1834 9.96573 18.5192 10.0528 18.743C10.1544 19.0182 10.3165 19.268 10.5271 19.4728C10.7319 19.6834 10.9817 19.8455 11.2569 19.9471C11.4807 20.0342 11.8165 20.1375 12.4355 20.1657C13.1048 20.1963 13.305 20.2027 15 20.2027C16.695 20.2027 16.8952 20.1963 17.5644 20.1657C18.1834 20.1375 18.5192 20.0342 18.743 19.9471C19.039 19.8317 19.2507 19.695 19.4728 19.4728C19.6834 19.268 19.8455 19.0182 19.9471 18.743C20.0342 18.5192 20.1375 18.1834 20.1657 17.5644C20.1963 16.8952 20.2027 16.6944 20.2027 15C20.2027 13.3055 20.1963 13.1048 20.1657 12.4355C20.1375 11.8165 20.0342 11.4807 19.9471 11.2569C19.8317 10.9609 19.695 10.7492 19.4728 10.5271C19.268 10.3165 19.0186 10.1545 18.743 10.0528C18.5192 9.96573 18.1834 9.86246 17.5644 9.83419ZM14.1894 16.9563C14.6421 17.1447 15.1461 17.1702 15.6155 17.0283C16.0849 16.8863 16.4904 16.5859 16.7628 16.1782C17.0352 15.7705 17.1577 15.2808 17.1092 14.7929C17.0608 14.305 16.8444 13.849 16.4971 13.5028C16.2757 13.2816 16.008 13.1122 15.7132 13.0068C15.4185 12.9014 15.1041 12.8627 14.7926 12.8934C14.4811 12.9241 14.1802 13.0235 13.9118 13.1845C13.6433 13.3454 13.4139 13.5639 13.2399 13.8241C13.066 14.0844 12.952 14.3799 12.906 14.6896C12.8601 14.9992 12.8833 15.3151 12.9741 15.6147C13.0649 15.9142 13.221 16.1899 13.4311 16.4219C13.6413 16.6539 13.9002 16.8364 14.1894 16.9563ZM12.6934 12.6934C12.9963 12.3905 13.3559 12.1503 13.7517 11.9863C14.1474 11.8224 14.5716 11.738 15 11.738C15.4283 11.738 15.8525 11.8224 16.2483 11.9863C16.644 12.1503 17.0036 12.3905 17.3065 12.6934C17.6094 12.9963 17.8497 13.3559 18.0136 13.7517C18.1775 14.1474 18.2619 14.5716 18.2619 15C18.2619 15.4283 18.1775 15.8525 18.0136 16.2483C17.8497 16.644 17.6094 17.0036 17.3065 17.3065C16.6948 17.9182 15.8651 18.2619 15 18.2619C14.1348 18.2619 13.3052 17.9182 12.6934 17.3065C12.0817 16.6948 11.738 15.8651 11.738 15C11.738 14.1348 12.0817 13.3052 12.6934 12.6934ZM18.9853 12.2238C19.0604 12.153 19.1205 12.0679 19.1621 11.9734C19.2036 11.879 19.2258 11.7771 19.2273 11.674C19.2288 11.5708 19.2096 11.4684 19.1708 11.3727C19.132 11.2771 19.0744 11.1903 19.0015 11.1173C18.9285 11.0443 18.8417 10.9867 18.746 10.948C18.6504 10.9092 18.548 10.8899 18.4448 10.8915C18.3416 10.893 18.2398 10.9151 18.1454 10.9567C18.0509 10.9983 17.9658 11.0584 17.895 11.1334C17.7573 11.2794 17.6819 11.4733 17.6848 11.674C17.6877 11.8746 17.7687 12.0662 17.9106 12.2081C18.0525 12.35 18.2442 12.4311 18.4448 12.434C18.6455 12.4369 18.8394 12.3615 18.9853 12.2238Z" fill="#715B4B"/>
</g>
<circle cx="15" cy="15" r="14.5" stroke="#715B4B"/>
<defs>
<clipPath id="clip0_723_33">
<rect width="13.8462" height="13.8462" fill="white" transform="translate(8.0769 8.0769)"/>
</clipPath>
</defs>
</svg>
