<svg width="30" height="30" viewBox="0 0 30 30" fill="none" xmlns="http://www.w3.org/2000/svg">
<path d="M20.3112 9.18005C20.7387 9.18005 21.0612 9.55505 20.8887 10.2526L18.7962 20.1151C18.65 20.8163 18.2262 20.9851 17.6412 20.6588L12.65 16.9726C12.6306 16.9587 12.6148 16.9404 12.604 16.9192C12.5931 16.898 12.5874 16.8745 12.5874 16.8507C12.5874 16.8269 12.5931 16.8034 12.604 16.7822C12.6148 16.761 12.6306 16.7427 12.65 16.7288L18.4137 11.5238C18.6762 11.2913 18.3575 11.1788 18.0125 11.3888L10.7787 15.9526C10.7568 15.9669 10.7319 15.976 10.7059 15.9792C10.6799 15.9825 10.6535 15.9798 10.6287 15.9713L7.55747 15.0001C6.87497 14.8013 6.87497 14.3326 7.71122 13.9988L20 9.2588C20.0974 9.21205 20.2033 9.18527 20.3112 9.18005V9.18005Z" stroke="#715B4B" stroke-linecap="round" stroke-linejoin="round"/>
<circle cx="15" cy="15" r="14.5" stroke="#715B4B"/>
</svg>
