<svg width="30" height="30" viewBox="0 0 30 30" fill="none" xmlns="http://www.w3.org/2000/svg">
<g clip-path="url(#clip0_723_38)">
<path fill-rule="evenodd" clip-rule="evenodd" d="M18.124 16.3742C17.9521 16.2883 17.1092 15.874 16.9523 15.8164C16.7954 15.7592 16.6811 15.731 16.5663 15.9029C16.4521 16.0737 16.1238 16.4602 16.024 16.5744C15.9236 16.6892 15.8238 16.7031 15.6525 16.6177C15.4811 16.5312 14.9284 16.3506 14.2736 15.7667C13.7642 15.3121 13.4198 14.7508 13.32 14.5789C13.2202 14.4075 13.309 14.3146 13.395 14.2292C13.4723 14.1525 13.5663 14.029 13.6523 13.9292C13.7383 13.8289 13.7665 13.7573 13.8236 13.6425C13.8813 13.5283 13.8525 13.4285 13.8092 13.3425C13.7665 13.2565 13.4238 12.4125 13.2808 12.0692C13.1417 11.7352 13.0004 11.7808 12.8954 11.775C12.795 11.7704 12.6808 11.7692 12.5665 11.7692C12.4523 11.7692 12.2665 11.8119 12.1096 11.9839C11.9521 12.1552 11.5096 12.57 11.5096 13.414C11.5096 14.2575 12.1234 15.0727 12.2094 15.1875C12.2954 15.3017 13.4181 17.0337 15.1379 17.7762C15.5475 17.9527 15.8665 18.0583 16.1152 18.1367C16.5259 18.2677 16.8998 18.2492 17.1952 18.2048C17.524 18.1558 18.2094 17.79 18.3525 17.3896C18.495 16.9892 18.495 16.646 18.4523 16.5744C18.4096 16.5029 18.2954 16.4602 18.1234 16.3742H18.124ZM14.9959 20.6452H14.9936C13.9722 20.6454 12.9694 20.3708 12.0906 19.8502L11.8829 19.7267L9.72402 20.2933L10.3004 18.1887L10.1648 17.9729C9.59371 17.0639 9.2915 16.0118 9.29306 14.9383C9.29421 11.794 11.8523 9.23597 14.9983 9.23597C16.5213 9.23597 17.9533 9.8302 19.0298 10.9079C19.5608 11.4367 19.9816 12.0655 20.268 12.758C20.5544 13.4505 20.7006 14.1929 20.6983 14.9423C20.6971 18.0865 18.139 20.6452 14.9959 20.6452ZM19.849 10.0892C19.2134 9.44938 18.457 8.94205 17.6239 8.59662C16.7907 8.2512 15.8973 8.07455 14.9954 8.07693C11.2142 8.07693 8.13575 11.1548 8.1346 14.9377C8.13402 16.1469 8.4496 17.3273 9.05017 18.3675L8.0769 21.9231L11.7138 20.9689C12.7199 21.517 13.8473 21.8042 14.9931 21.8042H14.9959C18.7771 21.8042 21.8556 18.7264 21.8567 14.9429C21.8595 14.0413 21.6835 13.1481 21.3389 12.315C20.9943 11.4819 20.4879 10.7254 19.849 10.0892Z" fill="#715B4B"/>
</g>
<circle cx="15" cy="15" r="14.5" stroke="#715B4B"/>
<defs>
<clipPath id="clip0_723_38">
<rect width="13.8462" height="13.8462" fill="white" transform="translate(8.0769 8.0769)"/>
</clipPath>
</defs>
</svg>
